<?xml version="1.0" standalone="no"?>
<!DOCTYPE svg PUBLIC "-//W3C//DTD SVG 20010904//EN"
 "http://www.w3.org/TR/2001/REC-SVG-20010904/DTD/svg10.dtd">
<svg version="1.0" xmlns="http://www.w3.org/2000/svg"
 width="300px" height="300px" viewBox="0 0 1024.000000 1024.000000"
 preserveAspectRatio="xMidYMid meet">

<g transform="translate(0.000000,1024.000000) scale(0.100000,-0.100000)"
fill="#000000" stroke="none">
<path d="M0 10224 c0 -8 5 -12 10 -9 6 4 8 11 5 16 -9 14 -15 11 -15 -7z"/>
<path d="M22 10217 l-22 -23 0 -5097 0 -5097 5120 0 5120 0 0 5120 0 5120
-5098 0 -5099 0 -21 -23z m5758 -982 c178 -20 356 -64 495 -122 461 -193 790
-494 1009 -923 56 -108 137 -333 151 -415 11 -68 12 -68 47 -43 18 12 58 43
88 68 30 25 63 51 73 59 16 13 17 -24 17 -742 l0 -756 -37 -6 c-317 -49 -838
-288 -1208 -553 -129 -93 -219 -168 -342 -286 l-108 -104 -24 19 c-13 10 -38
19 -57 19 -19 0 -34 3 -34 8 0 4 14 25 31 47 18 22 -7 0 -55 -50 -102 -106
-170 -205 -228 -332 -24 -51 -45 -93 -49 -93 -3 0 -20 33 -38 74 -42 96 -136
241 -199 306 -48 50 -52 52 -89 45 -21 -3 -53 -14 -71 -22 l-34 -16 -116 115
c-129 127 -202 187 -367 300 -190 130 -449 271 -675 366 -114 48 -361 129
-448 147 -35 8 -66 15 -68 18 -2 2 -3 343 -2 757 l3 753 78 -64 c43 -35 90
-72 105 -81 l26 -17 22 87 c83 328 235 597 479 851 177 184 342 303 570 412
336 160 677 216 1055 174z m-2592 -1337 l87 -99 5 -806 5 -807 55 -12 c50 -11
160 -35 185 -40 40 -8 185 -52 264 -81 53 -19 110 -39 127 -44 16 -5 40 -18
52 -29 14 -14 22 -16 23 -8 0 9 2 9 5 2 3 -7 14 -9 26 -6 16 4 19 2 13 -8 -6
-10 -4 -12 7 -7 9 3 25 -1 37 -9 11 -8 21 -12 21 -7 0 4 6 0 13 -9 8 -9 22
-15 33 -14 10 2 25 -4 32 -13 8 -9 10 -10 7 -2 -6 9 -1 9 17 -3 14 -9 28 -13
31 -9 4 3 7 -1 7 -10 0 -10 5 -17 11 -17 5 0 7 6 4 13 -4 6 0 4 8 -6 9 -10 18
-18 21 -18 20 3 26 -1 26 -16 0 -14 2 -15 9 -4 7 11 16 9 50 -11 23 -14 38
-28 34 -32 -4 -4 1 -4 11 0 15 6 17 4 11 -6 -5 -9 -4 -11 4 -6 21 14 117 -56
105 -76 -4 -7 -2 -8 5 -4 6 4 8 12 5 18 -5 7 -2 8 5 4 7 -5 10 -14 7 -21 -6
-17 21 -28 28 -12 4 7 4 2 2 -11 -2 -12 0 -20 5 -16 5 3 9 0 9 -5 0 -6 5 -11
11 -11 5 0 8 4 4 9 -3 5 0 13 6 17 8 5 9 3 5 -5 -5 -8 0 -14 13 -18 12 -3 21
-9 21 -13 0 -4 8 -7 17 -6 10 0 18 -6 18 -15 0 -8 8 -23 18 -33 15 -16 21 -14
18 7 -3 19 11 4 20 -22 8 -21 16 -29 29 -26 12 2 17 -1 14 -9 -3 -8 5 -16 18
-21 l23 -7 -25 -7 c-25 -7 -25 -7 -3 -13 13 -3 26 -2 29 3 10 17 25 9 22 -13
-2 -15 5 -26 22 -35 25 -13 25 -13 2 -13 -19 0 -21 -2 -10 -14 8 -9 17 -11 23
-5 14 14 45 11 40 -3 -5 -15 19 -50 31 -46 5 1 19 -6 31 -16 21 -19 21 -20 4
-35 -16 -14 -17 -18 -4 -30 12 -11 14 -10 11 4 -2 10 3 20 10 22 8 3 10 -1 5
-14 -6 -16 -5 -16 10 -4 21 17 22 8 1 -13 -14 -14 -13 -17 10 -28 14 -6 26
-15 26 -20 0 -5 5 -6 10 -3 6 3 10 1 10 -4 0 -6 7 -11 16 -11 14 0 14 -3 4
-15 -11 -13 -8 -15 16 -15 16 0 25 -4 19 -8 -5 -4 -12 -16 -14 -27 -3 -20 -3
-20 18 -1 19 17 21 17 15 3 -4 -12 -1 -17 10 -17 9 0 16 -5 16 -11 0 -6 7 -8
18 -4 14 5 15 4 5 -6 -10 -10 -16 -10 -25 -1 -14 14 -28 16 -28 3 0 -5 9 -12
20 -16 11 -3 19 -9 19 -13 -3 -18 2 -35 8 -29 3 4 13 2 20 -5 11 -9 17 -9 25
3 7 11 8 9 3 -6 -4 -11 -7 -28 -7 -38 0 -9 -3 -15 -9 -12 -5 4 -9 13 -9 21 0
8 -4 12 -10 9 -5 -3 -10 -1 -10 6 0 7 -3 10 -6 6 -3 -3 -16 3 -28 14 -11 11
-40 33 -64 50 -25 17 -40 34 -36 41 4 7 3 8 -4 4 -6 -4 -53 18 -104 49 -107
64 -341 181 -449 223 -170 68 -482 161 -704 210 -112 25 -142 31 -435 77 -14
2 -52 6 -85 9 -141 14 -172 17 -202 22 l-33 5 0 1151 0 1151 20 -18 c12 -11
60 -63 108 -117z m4862 -1023 l0 -1145 -22 -4 c-13 -3 -52 -8 -88 -11 -431
-40 -671 -86 -1063 -202 -325 -95 -633 -238 -866 -400 -50 -35 -66 -41 -77
-32 -8 6 -14 18 -14 26 0 12 4 11 18 -4 9 -10 14 -14 10 -9 -13 16 -9 29 6 23
10 -4 13 -1 9 8 -3 8 -10 12 -16 8 -6 -3 -7 -1 -3 6 6 9 11 9 21 1 10 -8 15
-8 21 1 4 8 3 9 -4 5 -7 -4 -12 -1 -12 9 0 10 5 13 12 9 8 -5 9 0 6 14 -4 12
-2 25 3 28 6 3 5 11 -2 20 -6 8 -9 17 -5 21 3 3 6 1 6 -6 0 -7 6 -11 13 -8 7
3 21 -1 32 -9 26 -19 40 -18 20 2 -11 11 -13 20 -5 28 5 7 6 17 2 21 -4 5 -1
5 6 1 6 -4 12 -14 12 -22 0 -9 -5 -12 -12 -8 -6 4 -8 3 -5 -4 4 -5 16 -8 28
-5 11 3 17 9 12 12 -22 15 7 91 35 91 7 0 10 -5 6 -12 -4 -6 -3 -8 4 -5 5 4 8
15 5 25 -2 10 3 24 12 32 13 11 15 10 9 -3 -4 -12 -1 -14 15 -10 12 3 18 10
14 17 -16 25 -12 36 9 25 17 -9 18 -8 9 9 -6 11 -14 22 -18 24 -5 3 -2 3 5 2
6 -2 12 1 12 5 0 5 10 7 21 4 18 -5 20 -3 15 15 -6 17 -2 23 20 28 15 4 35 2
46 -5 11 -7 18 -7 18 -1 0 5 -4 10 -10 10 -5 0 -10 7 -10 16 0 9 -5 12 -12 8
-7 -4 -8 -3 -4 5 6 9 11 9 22 0 10 -8 14 -8 15 0 1 6 3 16 4 21 1 6 3 13 4 16
0 4 8 1 16 -6 13 -11 14 -10 9 3 -6 16 28 42 40 30 3 -3 6 1 6 10 0 10 4 17 8
17 5 0 25 14 45 31 20 17 38 30 41 30 3 -1 15 8 26 19 11 11 28 20 38 21 29 1
54 7 60 15 4 4 -2 4 -13 1 -15 -5 -13 -1 9 19 16 14 35 23 43 20 8 -3 11 -1 8
4 -3 6 -1 10 5 10 6 0 18 7 27 15 12 13 18 13 31 3 13 -11 15 -10 9 5 -4 11
-3 16 3 12 6 -3 10 -3 10 2 0 14 88 55 101 47 8 -5 10 -3 4 6 -6 10 -4 12 11
6 10 -4 15 -4 11 0 -9 9 83 55 95 48 4 -3 8 0 8 6 0 6 5 8 10 5 6 -3 10 -1 10
6 0 6 8 9 20 6 11 -3 32 5 51 19 18 13 40 24 49 24 9 0 21 5 28 12 8 8 15 8
27 -2 12 -10 15 -10 15 5 0 12 6 16 20 12 11 -3 18 -1 14 4 -5 9 0 11 29 13 6
1 14 4 17 7 13 16 263 82 430 114 47 9 91 21 97 27 10 8 13 181 13 811 l0 800
103 108 c56 59 108 107 115 108 9 1 12 -234 12 -1144z m-4866 -1326 c5 -4 8
-36 8 -70 -1 -55 1 -62 21 -67 19 -5 17 -7 -13 -14 -45 -11 -47 -11 -97 -10
l-43 2 0 89 0 90 58 -6 c31 -3 61 -9 66 -14z m1591 11 c3 -5 1 -10 -4 -10 -6
0 -11 5 -11 10 0 6 2 10 4 10 3 0 8 -4 11 -10z m3265 -85 l0 -95 -70 0 -70 0
5 38 c5 37 13 106 14 129 1 7 21 13 49 16 26 2 53 4 60 5 9 2 12 -23 12 -93z
m-1920 -109 c0 -2 -7 -7 -16 -10 -8 -3 -12 -2 -9 4 6 10 25 14 25 6z m-2795
-121 c412 -12 685 -36 918 -82 103 -20 137 -30 133 -40 -3 -7 -1 -13 4 -13 6
0 10 6 10 13 0 6 5 4 11 -6 8 -14 14 -15 32 -7 21 11 21 10 3 -4 -16 -13 -17
-18 -5 -32 13 -16 12 -16 -8 -3 -13 8 -23 20 -23 27 0 9 -5 10 -19 2 -27 -14
-30 -13 -24 13 5 22 5 22 -10 2 -13 -17 -18 -18 -29 -6 -9 10 -9 12 -1 7 8 -5
11 -2 7 7 -2 7 -11 14 -19 14 -8 0 -12 -5 -8 -10 3 -5 -5 -7 -18 -3 -13 3 -18
3 -11 0 6 -3 9 -11 6 -16 -4 -7 -2 -8 4 -4 16 9 51 -15 45 -31 -3 -7 -13 -13
-22 -13 -11 0 -12 3 -4 8 19 12 1 28 -34 29 -25 0 -33 -4 -35 -21 -4 -31 -36
-34 -34 -3 0 15 6 23 14 20 6 -3 12 -1 12 4 0 5 -6 10 -12 11 -7 1 -28 3 -45
5 -18 2 -33 -1 -33 -6 0 -5 -6 -7 -13 -4 -8 3 -14 -1 -14 -9 0 -7 4 -11 9 -8
4 3 8 0 8 -6 0 -6 5 -8 10 -5 6 4 8 11 5 16 -4 5 1 9 10 9 11 0 15 -5 12 -15
-4 -8 -1 -17 5 -21 7 -5 8 -2 3 6 -5 9 -4 11 3 6 24 -15 12 -28 -20 -21 -57
11 -67 16 -64 28 1 7 1 9 -1 4 -3 -4 -10 -4 -16 0 -12 7 11 -27 25 -37 4 -3
-18 -7 -48 -8 -31 -1 -53 2 -50 6 6 10 -36 8 -52 -2 -5 -3 -205 -8 -445 -12
l-437 -6 0 116 0 116 38 -4 c20 -3 123 -8 227 -11z m4725 -101 l0 -116 -392 6
c-216 4 -432 7 -480 6 -77 -1 -87 1 -82 14 5 12 2 15 -10 10 -9 -3 -13 -10
-10 -15 3 -5 -4 -9 -15 -9 -12 0 -21 6 -22 13 0 10 -2 10 -6 0 -7 -18 -33 -16
-33 2 0 8 -10 19 -22 25 -22 10 -22 10 -4 -4 10 -8 15 -20 11 -26 -5 -8 -11
-8 -21 1 -11 9 -14 8 -14 -2 0 -10 -3 -10 -12 -1 -16 16 -45 15 -51 0 -4 -10
-7 -10 -18 0 -10 9 -10 12 0 12 7 0 9 5 6 10 -3 6 3 10 14 10 11 0 25 10 31
23 10 21 10 21 -4 3 -9 -11 -23 -17 -35 -13 -11 3 -19 1 -18 -3 1 -4 -2 -10
-7 -12 -18 -7 -14 33 5 42 20 11 26 30 8 30 -5 0 -8 -4 -5 -9 11 -17 -19 -18
-32 -2 -12 14 -13 13 -9 -6 3 -13 0 -23 -5 -23 -6 0 -5 -8 3 -17 7 -10 9 -15
4 -10 -4 4 -17 -5 -27 -20 -10 -16 -18 -23 -18 -16 0 6 5 15 10 18 17 11 11
35 -7 29 -10 -2 -8 1 5 7 12 7 22 18 22 26 0 17 -5 16 -35 -3 -15 -10 -25 -12
-25 -5 0 6 7 11 15 11 8 0 14 5 12 11 -2 11 47 22 188 44 22 4 67 8 100 10 33
2 68 7 77 10 9 4 55 7 102 8 47 1 86 5 86 8 0 8 134 17 365 25 99 4 182 8 184
10 2 2 42 4 88 4 l83 0 0 -116z m-1360 -29 c-7 -9 -15 -13 -17 -11 -7 7 7 26
19 26 6 0 6 -6 -2 -15z m-113 -20 c0 -8 -4 -15 -9 -15 -10 0 -11 14 -1 23 9
10 10 9 10 -8z m80 -7 c-3 -8 -6 -5 -6 6 -1 11 2 17 5 13 3 -3 4 -12 1 -19z
m73 12 c0 -5 -2 -10 -4 -10 -3 0 -8 5 -11 10 -3 6 -1 10 4 10 6 0 11 -4 11
-10z m-2460 -32 c0 -6 -6 -5 -15 2 -8 7 -15 14 -15 16 0 2 7 1 15 -2 8 -4 15
-11 15 -16z m1624 -4 c5 -14 4 -15 -9 -4 -17 14 -19 20 -6 20 5 0 12 -7 15
-16z m943 -16 c2 -17 0 -19 -7 -8 -5 8 -6 18 -4 22 8 12 10 10 11 -14z m-4241
-20 c9 -18 27 -45 41 -59 l24 -26 -22 -43 c-27 -52 -36 -134 -19 -185 16 -48
63 -101 114 -128 l41 -22 1122 -3 1122 -2 11 -43 c7 -23 20 -57 31 -75 l19
-32 -1183 2 -1182 3 -57 27 c-126 59 -198 166 -206 308 -3 60 0 87 18 132 19
50 95 178 106 178 2 0 11 -15 20 -32z m1684 17 c0 -1 -8 -5 -18 -7 -11 -3 -19
0 -19 7 0 7 8 10 19 7 10 -2 18 -6 18 -7z m1573 8 c-7 -2 -13 -12 -13 -20 0
-9 -3 -14 -6 -10 -10 10 4 37 18 36 10 0 10 -2 1 -6z m2613 -30 c-3 -8 -2 -12
3 -9 19 12 79 -105 87 -169 0 -5 4 -18 8 -27 8 -18 3 -114 -8 -162 -18 -74
-75 -153 -140 -191 -97 -57 -41 -54 -1144 -55 -559 0 -1070 -1 -1134 0 l-117
0 18 33 c11 17 25 51 32 74 l12 43 1086 2 1086 3 50 26 c30 15 62 42 80 68 27
38 30 51 30 114 0 56 -5 83 -24 120 l-23 48 24 27 c14 15 33 39 43 54 17 28
41 29 31 1z m-3186 -33 c13 -11 19 -20 15 -20 -4 0 -2 -8 6 -18 8 -10 4 -8 -7
4 -12 13 -24 21 -27 18 -2 -3 -7 4 -10 16 -6 25 -6 25 23 0z m547 0 c-1 -11
-5 -20 -10 -20 -5 0 -18 -10 -29 -22 -11 -13 -7 -4 9 19 15 24 29 43 30 43 1
0 1 -9 0 -20z m-511 -259 c5 -5 44 -21 86 -35 115 -39 227 -33 346 20 l52 23
0 -22 c0 -68 -57 -206 -80 -192 -5 3 -11 -4 -15 -15 -3 -11 -9 -20 -13 -21
-30 -3 -46 -10 -54 -21 -7 -10 -8 -8 -4 5 3 11 0 17 -9 17 -8 0 -15 -7 -15
-16 0 -8 -5 -12 -10 -9 -6 4 -8 11 -5 16 4 5 1 9 -4 9 -6 0 -11 -7 -11 -15 0
-8 -5 -15 -11 -15 -5 0 -7 5 -4 10 4 6 -5 10 -21 10 -20 0 -24 -3 -16 -13 8
-9 0 -11 -36 -8 -26 3 -37 7 -24 9 36 6 16 20 -22 15 -30 -4 -39 1 -75 38 -26
27 -47 64 -61 103 -28 85 -26 138 6 107z m3375 -723 c52 -31 89 -71 122 -132
l22 -41 0 -1075 0 -1075 -23 -45 c-31 -60 -86 -115 -139 -140 -43 -20 -50 -20
-3123 -20 -3064 0 -3081 0 -3120 20 -60 31 -108 78 -138 134 l-27 51 0 1065 0
1065 33 67 c34 69 92 123 157 146 21 7 957 10 3110 9 l3080 -2 46 -27z"/>
<path d="M5315 8765 c-146 -28 -235 -59 -353 -120 -124 -64 -200 -119 -299
-216 -157 -156 -238 -281 -297 -459 -62 -190 -72 -396 -27 -526 42 -119 146
-240 252 -295 54 -27 153 -49 224 -49 236 0 423 168 450 405 13 121 49 207
105 253 42 34 119 65 176 70 166 13 300 -94 322 -258 23 -163 -17 -224 -318
-487 -290 -254 -359 -370 -360 -605 0 -42 -7 -107 -16 -145 -11 -48 -15 -93
-11 -156 10 -153 91 -284 217 -347 317 -160 648 86 600 447 -16 122 -6 134
211 245 159 82 218 121 297 198 194 190 313 415 352 664 16 100 13 296 -5 400
-52 298 -261 620 -510 784 -138 92 -321 168 -460 192 -27 5 -61 12 -75 16 -14
3 -99 8 -190 9 -141 3 -183 0 -285 -20z m355 -246 c36 -5 74 -11 85 -13 78
-13 218 -73 312 -133 69 -44 233 -204 233 -228 0 -9 5 -13 10 -10 6 3 10 -1
10 -10 0 -9 -4 -14 -9 -10 -5 3 -13 0 -17 -6 -4 -8 -3 -9 5 -5 6 4 14 0 17 -9
4 -9 13 -14 22 -10 12 4 13 3 2 -10 -7 -9 -10 -29 -8 -48 7 -45 1 -55 -30 -49
-15 3 -24 2 -21 -2 17 -18 85 -14 74 4 -3 4 1 13 9 19 11 9 14 8 12 -6 0 -10
-8 -23 -16 -30 -12 -9 -13 -14 -2 -24 16 -17 15 -26 -4 -33 -14 -5 -15 -4 -4
9 15 18 12 18 -29 4 -17 -6 -31 -15 -31 -21 0 -5 4 -7 9 -4 4 3 17 -1 27 -9
11 -8 14 -14 7 -15 -18 0 -16 -20 1 -20 8 0 17 -4 20 -9 3 -5 -5 -8 -19 -7
-14 0 -25 7 -25 14 0 6 -3 12 -7 12 -5 0 -8 -11 -8 -24 0 -15 5 -23 15 -21 17
3 50 -23 50 -39 0 -6 -5 -4 -10 4 -8 13 -10 13 -10 -2 0 -11 -5 -15 -15 -12
-11 5 -14 2 -8 -12 3 -11 11 -23 17 -27 7 -6 4 -7 -6 -3 -10 3 -18 1 -18 -4 0
-5 9 -12 20 -15 18 -6 18 -8 5 -21 -17 -18 -20 -38 -4 -28 7 4 7 -1 -1 -16
-10 -18 -9 -24 1 -31 12 -7 11 -11 -1 -19 -13 -9 -13 -11 0 -20 12 -8 13 -11
1 -19 -9 -6 -10 -11 -2 -15 8 -5 8 -13 1 -27 -6 -10 -7 -19 -3 -19 4 0 -1 -7
-11 -15 -11 -8 -14 -15 -8 -15 14 0 16 -34 2 -59 -5 -10 -11 -38 -13 -63 -3
-24 -14 -61 -25 -81 -11 -21 -19 -51 -18 -67 1 -16 -1 -27 -6 -24 -4 3 -14 -9
-23 -25 -10 -19 -11 -32 -5 -36 6 -4 10 -3 9 2 -3 17 1 24 11 18 6 -4 4 -15
-6 -30 -15 -24 -11 -71 6 -60 4 3 13 -2 19 -9 9 -11 9 -16 0 -22 -7 -4 -9 -3
-5 4 3 6 2 13 -4 17 -5 3 -10 0 -10 -7 0 -9 -3 -10 -8 -2 -4 6 -15 10 -25 8
-9 -1 -15 2 -11 7 3 5 10 6 16 3 7 -4 8 -2 4 4 -10 17 -23 15 -30 -3 -4 -10 2
-19 17 -25 13 -5 16 -9 7 -10 -9 -1 -6 -5 8 -10 12 -5 22 -14 22 -20 0 -7 -6
-8 -18 -1 -16 8 -18 6 -17 -12 3 -32 -95 -124 -207 -193 -120 -74 -170 -116
-198 -168 -29 -52 -60 -78 -77 -64 -7 6 -10 14 -7 19 3 5 0 9 -5 9 -14 0 -14
-17 -1 -25 16 -10 12 -24 -7 -24 -10 0 -31 -2 -48 -5 -16 -3 -35 0 -42 6 -10
8 -13 6 -13 -4 0 -10 -17 -20 -45 -28 -31 -9 -58 -27 -90 -61 l-45 -48 0 32
c1 77 29 188 65 256 45 86 116 154 275 267 111 79 191 152 246 224 60 80 117
242 114 328 0 23 3 42 8 42 4 0 7 -16 6 -35 -2 -20 1 -33 6 -30 5 3 12 0 16
-6 4 -7 3 -9 -4 -5 -6 3 -13 2 -16 -3 -3 -4 2 -8 12 -8 36 0 41 -3 35 -20 -6
-17 -6 -17 10 -1 9 9 17 21 17 26 0 16 38 21 44 6 3 -8 10 -14 16 -14 6 0 8 5
4 12 -5 7 -3 8 6 3 10 -6 10 -11 -3 -20 -24 -17 -21 -28 3 -15 21 11 28 50 9
50 -6 0 -4 7 4 15 9 8 13 24 10 36 -4 15 -2 20 5 15 8 -5 10 -2 6 9 -4 9 -13
14 -20 11 -8 -3 -14 -1 -14 3 0 5 7 11 15 15 18 7 20 47 3 64 -9 9 -9 12 -1
12 24 0 -8 128 -60 240 -84 180 -258 327 -460 387 -109 32 -298 37 -397 9 -36
-10 -69 -19 -75 -20 -100 -26 -236 -116 -324 -213 -76 -84 -130 -183 -157
-284 -26 -101 -40 -263 -21 -253 9 5 9 4 1 -5 -6 -7 -8 -31 -4 -62 l7 -51 -49
4 c-72 7 -125 48 -165 128 -28 55 -33 76 -33 137 0 185 72 367 210 530 113
134 258 229 446 292 140 47 314 62 454 40z m700 -638 c0 -6 -4 -13 -10 -16 -5
-3 -10 1 -10 9 0 9 5 16 10 16 6 0 10 -4 10 -9z m-185 -371 c-3 -5 -12 -10
-18 -10 -7 0 -6 4 3 10 19 12 23 12 15 0z m36 -43 c-10 -9 -11 -8 -5 6 3 10 9
15 12 12 3 -3 0 -11 -7 -18z m-38 -14 c-3 -7 -6 -13 -8 -13 -2 0 -5 6 -8 13
-3 8 1 14 8 14 7 0 11 -6 8 -14z m97 -263 c0 -5 -2 -10 -4 -10 -3 0 -8 5 -11
10 -3 6 -1 10 4 10 6 0 11 -4 11 -10z m-609 -875 c78 -59 97 -156 46 -234 -70
-105 -224 -106 -293 -1 -49 74 -27 189 46 238 30 20 45 23 105 20 50 -2 77 -9
96 -23z"/>
<path d="M6305 8030 c3 -5 8 -10 11 -10 2 0 4 5 4 10 0 6 -5 10 -11 10 -5 0
-7 -4 -4 -10z"/>
<path d="M6305 8000 c-3 -5 -1 -10 4 -10 6 0 11 5 11 10 0 6 -2 10 -4 10 -3 0
-8 -4 -11 -10z"/>
<path d="M6288 7933 c7 -3 16 -2 19 1 4 3 -2 6 -13 5 -11 0 -14 -3 -6 -6z"/>
<path d="M6258 7913 c7 -3 16 -2 19 1 4 3 -2 6 -13 5 -11 0 -14 -3 -6 -6z"/>
<path d="M6310 7790 c0 -5 4 -10 9 -10 6 0 13 5 16 10 3 6 -1 10 -9 10 -9 0
-16 -4 -16 -10z"/>
<path d="M6310 7689 c0 -5 5 -7 10 -4 6 3 10 8 10 11 0 2 -4 4 -10 4 -5 0 -10
-5 -10 -11z"/>
<path d="M6233 7420 c-1 -11 2 -20 5 -20 4 0 8 9 9 20 1 11 -2 20 -5 20 -4 0
-8 -9 -9 -20z"/>
<path d="M6141 7398 c-5 -15 -4 -26 3 -30 17 -12 28 -9 19 5 -4 6 -6 20 -5 30
4 24 -7 21 -17 -5z"/>
<path d="M6202 7395 c-11 -12 -10 -15 3 -15 8 0 15 7 15 15 0 18 -2 18 -18 0z"/>
<path d="M6253 7363 c-15 -5 -17 -23 -4 -23 5 0 11 7 15 15 3 8 4 15 3 14 -1
0 -8 -3 -14 -6z"/>
<path d="M6133 7325 c0 -8 4 -15 9 -15 4 0 8 4 8 9 0 6 -4 12 -8 15 -5 3 -9
-1 -9 -9z"/>
<path d="M6190 7080 c0 -5 4 -10 9 -10 6 0 13 5 16 10 3 6 -1 10 -9 10 -9 0
-16 -4 -16 -10z"/>
<path d="M5765 6589 c-4 -6 -5 -12 -2 -15 2 -3 7 2 10 11 7 17 1 20 -8 4z"/>
<path d="M5735 6550 c-3 -5 -1 -10 4 -10 6 0 11 5 11 10 0 6 -2 10 -4 10 -3 0
-8 -4 -11 -10z"/>
<path d="M5955 5588 l-40 -43 43 40 c39 36 47 45 39 45 -2 0 -21 -19 -42 -42z"/>
<path d="M4485 5730 c3 -5 8 -10 11 -10 2 0 4 5 4 10 0 6 -5 10 -11 10 -5 0
-7 -4 -4 -10z"/>
<path d="M4730 5519 c0 -5 5 -7 10 -4 6 3 10 8 10 11 0 2 -4 4 -10 4 -5 0 -10
-5 -10 -11z"/>
<path d="M5037 5209 c4 -13 8 -18 11 -10 2 7 -1 18 -6 23 -8 8 -9 4 -5 -13z"/>
<path d="M7100 5980 c-8 -5 -12 -12 -9 -15 4 -3 12 1 19 10 14 17 11 19 -10 5z"/>
<path d="M6535 5691 c3 -2 -1 -11 -8 -20 -11 -14 -10 -14 5 -2 10 7 24 11 32
8 9 -4 13 -1 10 6 -2 7 -13 13 -24 13 -10 0 -17 -2 -15 -5z"/>
<path d="M6481 5624 c0 -11 3 -14 6 -6 3 7 2 16 -1 19 -3 4 -6 -2 -5 -13z"/>
<path d="M6415 5580 c-3 -5 -1 -10 4 -10 6 0 11 5 11 10 0 6 -2 10 -4 10 -3 0
-8 -4 -11 -10z"/>
<path d="M6265 5480 c3 -5 8 -10 11 -10 2 0 4 5 4 10 0 6 -5 10 -11 10 -5 0
-7 -4 -4 -10z"/>
<path d="M6101 5296 c-9 -11 -9 -16 1 -22 7 -4 10 -4 6 1 -4 4 -3 14 3 22 6 7
9 13 6 13 -2 0 -10 -6 -16 -14z"/>
<path d="M6010 5211 c0 -12 -4 -20 -9 -17 -5 4 -7 -4 -4 -15 6 -21 7 -20 20 6
11 20 12 30 4 38 -8 8 -11 5 -11 -12z"/>
<path d="M4023 5092 c-1 -22 0 -24 9 -8 6 10 6 22 2 26 -5 5 -10 -3 -11 -18z"/>
<path d="M4038 5053 c7 -3 16 -2 19 1 4 3 -2 6 -13 5 -11 0 -14 -3 -6 -6z"/>
<path d="M6998 5113 c7 -3 16 -2 19 1 4 3 -2 6 -13 5 -11 0 -14 -3 -6 -6z"/>
<path d="M7006 5092 c-3 -5 1 -9 9 -9 8 0 12 4 9 9 -3 4 -7 8 -9 8 -2 0 -6 -4
-9 -8z"/>
<path d="M7176 5067 c3 -10 9 -15 12 -12 3 3 0 11 -7 18 -10 9 -11 8 -5 -6z"/>
<path d="M7120 5060 c0 -6 7 -10 15 -10 8 0 15 2 15 4 0 2 -7 6 -15 10 -8 3
-15 1 -15 -4z"/>
<path d="M7266 5061 c-4 -5 3 -7 14 -4 23 6 26 13 6 13 -8 0 -17 -4 -20 -9z"/>
<path d="M5650 4511 c0 -5 7 -11 15 -15 8 -3 15 -1 15 3 0 5 -7 11 -15 15 -8
3 -15 1 -15 -3z"/>
<path d="M3711 3783 c-256 -2 -378 -7 -388 -14 -18 -16 -19 -268 0 -292 10
-14 34 -17 132 -19 l119 -3 -2 -289 c-2 -207 1 -292 9 -302 15 -18 239 -20
257 -2 9 9 12 90 12 305 l0 292 138 3 137 3 9 144 c9 143 9 145 -14 163 -12
10 -25 17 -29 16 -3 -2 -174 -4 -380 -5z"/>
<path d="M4278 3783 c-57 -5 -78 -25 -58 -56 7 -12 78 -132 157 -266 l143
-243 0 -165 c0 -94 4 -173 10 -184 10 -17 22 -19 128 -19 79 0 122 4 130 12 8
8 12 64 12 186 l0 175 144 241 c170 286 169 284 162 302 -5 12 -32 14 -158 12
l-153 -3 -62 -127 c-35 -71 -66 -128 -71 -128 -5 0 -38 58 -75 129 -37 71 -74
132 -83 135 -16 6 -141 5 -226 -1z"/>
<path d="M5239 3778 c-18 -7 -19 -21 -19 -462 0 -405 2 -455 16 -460 9 -3 158
-6 333 -6 233 0 320 3 329 12 17 17 17 269 0 286 -9 9 -69 12 -210 12 l-198 0
0 304 c0 229 -3 307 -12 312 -16 10 -213 11 -239 2z"/>
<path d="M6035 3770 c-22 -24 -23 -891 -1 -909 9 -8 54 -11 132 -9 l119 3 3
143 c3 152 8 165 49 120 11 -13 57 -72 103 -133 45 -60 89 -116 98 -122 20
-16 308 -18 317 -3 9 15 1 26 -189 263 -91 114 -166 211 -166 215 0 4 45 64
101 132 210 259 243 309 207 311 -7 0 -71 1 -141 1 -102 0 -131 -3 -145 -15
-10 -9 -60 -77 -112 -151 -52 -74 -101 -135 -107 -135 -10 -1 -13 34 -13 143
0 109 -3 146 -14 155 -8 7 -53 11 -119 10 -86 -2 -110 -5 -122 -19z"/>
<path d="M7176 3769 c-128 -26 -256 -119 -315 -228 -40 -76 -66 -202 -57 -289
8 -97 60 -194 141 -270 36 -34 84 -71 108 -82 240 -117 515 -24 632 214 36 72
40 87 43 175 3 79 0 107 -18 161 -76 229 -303 364 -534 319z m171 -290 c50
-24 103 -103 103 -154 0 -139 -123 -231 -247 -184 -72 27 -128 115 -121 191
13 129 147 204 265 147z"/>
<path d="M2752 3500 c-59 -14 -112 -57 -138 -113 -28 -61 -30 -87 -8 -150 29
-85 120 -144 207 -133 105 12 187 100 187 200 0 79 -57 158 -138 190 -46 17
-59 18 -110 6z"/>
<path d="M8185 3494 c-98 -36 -151 -143 -121 -246 38 -133 188 -189 299 -112
59 41 102 127 93 188 -10 66 -57 130 -118 160 -58 29 -94 31 -153 10z"/>
<path d="M2746 2704 c-13 -12 -16 -41 -16 -153 0 -93 4 -141 12 -149 8 -8 55
-12 144 -12 73 0 135 -4 138 -8 2 -4 -17 -37 -43 -72 -26 -36 -113 -160 -194
-276 l-147 -212 0 -59 c0 -33 5 -64 12 -71 15 -15 695 -17 717 -3 12 8 14 36
12 148 -1 76 -7 143 -13 150 -7 9 -48 13 -139 13 -71 0 -129 4 -129 8 0 5 52
85 116 178 64 93 141 206 172 252 l56 83 3 86 c1 52 -2 92 -9 100 -8 10 -80
13 -344 13 -289 0 -335 -2 -348 -16z"/>
<path d="M3696 2701 c-26 -29 -259 -933 -254 -985 l3 -31 124 -3 c78 -2 128 1
136 8 7 6 16 34 20 63 14 102 8 98 142 95 l118 -3 9 -40 c4 -22 13 -58 20 -80
l11 -40 129 -3 c134 -3 156 3 156 40 0 11 -16 77 -36 146 -20 70 -75 284 -124
475 -49 192 -94 355 -101 363 -9 11 -45 14 -174 14 -146 0 -164 -2 -179 -19z
m205 -483 c41 -163 43 -158 -36 -158 -40 0 -65 4 -65 11 0 6 6 34 14 62 8 29
22 87 31 130 9 43 19 76 22 74 3 -3 18 -56 34 -119z"/>
<path d="M4392 2712 c-10 -7 -13 -110 -15 -508 0 -275 2 -505 7 -512 10 -17
237 -17 254 0 8 8 12 64 12 185 l0 173 88 0 c132 0 208 28 278 102 49 51 67
84 84 157 36 152 -58 324 -208 382 -51 20 -80 22 -272 26 -118 2 -221 0 -228
-5z m407 -288 c23 -30 26 -55 10 -85 -15 -29 -51 -39 -109 -32 l-50 6 0 68 0
69 64 0 c58 0 67 -3 85 -26z"/>
<path d="M5090 2700 c-13 -24 -22 -6 178 -354 l132 -230 0 -206 c0 -147 3
-209 12 -218 17 -17 232 -17 246 1 6 7 12 97 14 217 l4 205 108 190 c230 402
218 379 194 403 -19 19 -272 17 -288 -3 -10 -12 -140 -283 -140 -293 0 -2 -5
0 -11 4 -6 3 -38 63 -71 133 -84 179 -73 171 -234 171 -124 0 -134 -1 -144
-20z"/>
<path d="M6042 2708 c-8 -8 -12 -58 -12 -160 l0 -148 26 -10 c14 -6 72 -10
130 -10 l104 0 0 -338 c0 -250 3 -341 12 -350 17 -17 244 -17 255 1 4 6 8 163
8 347 l0 335 116 5 c77 3 122 10 133 19 13 11 16 36 16 155 0 97 -4 146 -12
154 -17 17 -759 17 -776 0z"/>
<path d="M7407 2702 c-15 -17 -17 -67 -17 -508 0 -368 3 -493 12 -502 8 -8 50
-12 124 -12 158 0 149 -16 141 242 -4 115 -5 208 -2 208 2 0 11 -26 20 -57 54
-193 109 -370 118 -381 7 -9 36 -12 101 -10 109 4 98 -12 156 218 66 256 67
256 62 17 -3 -155 -1 -211 8 -222 10 -12 37 -15 125 -15 95 0 114 3 126 18 22
27 21 998 -1 1012 -8 5 -81 10 -161 10 -126 0 -148 -2 -162 -17 -8 -10 -27
-63 -42 -118 -15 -55 -37 -136 -50 -180 -12 -44 -30 -110 -40 -147 -17 -68
-28 -83 -38 -50 -49 172 -149 487 -158 498 -9 11 -43 14 -159 14 -130 0 -149
-2 -163 -18z"/>
<path d="M7017 2633 c-3 -5 -21 -60 -41 -123 -19 -63 -85 -266 -146 -450 -61
-184 -109 -344 -108 -355 3 -18 12 -20 77 -23 41 -2 79 2 84 7 6 6 20 48 31
93 l21 83 85 0 85 0 24 -85 c13 -47 29 -88 35 -93 6 -4 45 -6 86 -5 68 3 75 5
78 25 2 12 -33 133 -77 270 -44 136 -109 341 -146 456 -60 188 -75 222 -88
200z m13 -599 c0 -8 -7 -14 -15 -14 -17 0 -18 2 -9 24 7 18 24 12 24 -10z"/>
</g>
</svg>
